<svg xmlns="http://www.w3.org/2000/svg" viewBox="0 0 1200 630" width="1200" height="630" preserveAspectRatio="xMidYMid slice" aria-hidden="true" focusable="false"><defs><linearGradient id="ppc1u6-bg" gradientTransform="rotate(64 .5 .5)"><stop offset="0" stop-color="#062b24"/><stop offset=".6" stop-color="#0f5345"/><stop offset="1" stop-color="#1d8f6b"/></linearGradient><linearGradient id="ppc1u6-gold" x1="0" y1="0" x2="1" y2="1"><stop offset="0" stop-color="#fde047"/><stop offset="1" stop-color="#f59e0b"/></linearGradient><linearGradient id="ppc1u6-flame" x1="0" y1="0" x2="0" y2="1"><stop offset="0" stop-color="#fbbf24"/><stop offset="1" stop-color="#ea580c"/></linearGradient><linearGradient id="ppc1u6-wallet" x1="0" y1="0" x2="1" y2="1"><stop offset="0" stop-color="#23a37a"/><stop offset="1" stop-color="#0f5345"/></linearGradient><pattern id="ppc1u6-dots" width="28" height="28" patternUnits="userSpaceOnUse"><circle cx="2" cy="2" r="2" fill="#a7f3d0" opacity=".12"/></pattern></defs><rect width="1200" height="630" fill="url(#ppc1u6-bg)"/><rect x="640" width="560" height="630" fill="url(#ppc1u6-dots)"/><circle cx="1011" cy="69" r="233" fill="#a7f3d0" opacity=".08"/><circle cx="271" cy="599" r="176" fill="#fde047" opacity=".07"/><circle cx="812" cy="550" r="79" fill="none" stroke="#a7f3d0" stroke-opacity=".18" stroke-width="3"/><path d="M758 142Q760.8 149.2 768 152Q760.8 154.8 758 162Q755.2 154.8 748 152Q755.2 149.2 758 142Z" fill="#a7f3d0" opacity="0.8369313491508366"/><path d="M1157 86Q1160.92 96.08 1171 100Q1160.92 103.92 1157 114Q1153.08 103.92 1143 100Q1153.08 96.08 1157 86Z" fill="#fde047" opacity="0.915504906885326"/><path d="M780 152Q783.08 159.92 791 163Q783.08 166.08 780 174Q776.92 166.08 769 163Q776.92 159.92 780 152Z" fill="#a7f3d0" opacity="0.7005081554874778"/><path d="M985 61Q988.08 68.92 996 72Q988.08 75.08 985 83Q981.92 75.08 974 72Q981.92 68.92 985 61Z" fill="#fde047" opacity="0.5632932702079416"/><g transform="translate(740 110) rotate(3 200 200) scale(1.02)"><ellipse cx="200" cy="360" rx="160" ry="20" fill="#000" opacity=".2"/><g><circle cx="150" cy="115.76" r="48" fill="#b45309"/><circle cx="150" cy="110" r="48" fill="url(#ppc1u6-gold)"/><circle cx="150" cy="110" r="35.519999999999996" fill="none" stroke="#fef3c7" stroke-opacity=".7" stroke-width="3.3600000000000003"/><text x="150" y="127.28" text-anchor="middle" font-size="48" font-weight="900" fill="#78350f" font-family="Work Sans, Arial, sans-serif">$</text></g><g><circle cx="250" cy="88.56" r="38" fill="#b45309"/><circle cx="250" cy="84" r="38" fill="url(#ppc1u6-gold)"/><circle cx="250" cy="84" r="28.12" fill="none" stroke="#fef3c7" stroke-opacity=".7" stroke-width="2.66"/><text x="250" y="97.68" text-anchor="middle" font-size="38" font-weight="900" fill="#78350f" font-family="Work Sans, Arial, sans-serif">$</text></g><rect x="50" y="130" width="300" height="210" rx="30" fill="#0b1f1a"/><rect x="50" y="150" width="300" height="190" rx="30" fill="url(#ppc1u6-wallet)"/><rect x="250" y="206" width="110" height="74" rx="20" fill="#0a3a31"/><circle cx="286" cy="243" r="14" fill="#fde047"/><rect x="78" y="182" width="120" height="12" rx="6" fill="#fff" opacity=".35"/></g><rect x="72" y="74" width="114" height="42" rx="21" fill="url(#ppc1u6-gold)"/><text x="94" y="102" font-size="19" font-weight="800" letter-spacing="1.5" fill="#422006" font-family="Work Sans, Arial, sans-serif">GUIDE</text><text font-size="54" font-weight="900" fill="#ffffff" letter-spacing="-0.5" font-family="Work Sans, Arial, sans-serif"><tspan x="72" y="224">Profitpiller</tspan><tspan x="72" y="287">guides: from</tspan><tspan x="72" y="350">sign-up to first</tspan><tspan x="72" y="413">cash-out</tspan></text><circle cx="86" cy="566" r="12" fill="#23a37a"/><circle cx="86" cy="566" r="5" fill="#fde047"/><text x="108" y="574" font-size="24" font-weight="800" fill="#a7f3d0" font-family="Work Sans, Arial, sans-serif">Profitpiller</text></svg>
